<?xml version="1.0" encoding="UTF-8"?>
<svg width="24" height="24" viewBox="0 0 24 24" fill="none" xmlns="http://www.w3.org/2000/svg">
  <path d="M12 14L11.2929 14.7071L12 15.4142L12.7071 14.7071L12 14ZM13 5C13 4.44772 12.5523 4 12 4C11.4477 4 11 4.44772 11 5L13 5ZM6.29289 9.70711L11.2929 14.7071L12.7071 13.2929L7.70711 8.29289L6.29289 9.70711ZM12.7071 14.7071L17.7071 9.70711L16.2929 8.29289L11.2929 13.2929L12.7071 14.7071ZM13 14L13 5L11 5L11 14L13 14Z" fill="#A855F7"/>
  <path d="M5 16L5.25 18.25L7.5 18.5L5.25 18.75L5 21L4.75 18.75L2.5 18.5L4.75 18.25L5 16Z" fill="#A855F7"/>
  <path d="M19 16L19.25 18.25L21.5 18.5L19.25 18.75L19 21L18.75 18.75L16.5 18.5L18.75 18.25L19 16Z" fill="#A855F7"/>
  <path d="M12 16L12.25 18.25L14.5 18.5L12.25 18.75L12 21L11.75 18.75L9.5 18.5L11.75 18.25L12 16Z" fill="#A855F7"/>
</svg>
